<svg width="110" height="110" viewBox="0 0 110 110" fill="none" xmlns="http://www.w3.org/2000/svg">
<path d="M61.3558 87.6944V69.3611L54.9392 63.25L51.8836 76.6944L30.8003 72.4167L32.0225 66.3056L46.6892 69.3611L51.5781 44.6111L46.0781 46.75V57.1389H39.967V42.7778L52.0364 37.5833C53.8188 36.8194 55.1302 36.3229 55.9704 36.0938C56.8107 35.8646 57.5873 35.75 58.3003 35.75C59.3697 35.75 60.3628 36.0301 61.2795 36.5903C62.1961 37.1505 62.9346 37.8889 63.4947 38.8056L66.5503 43.6944C67.8744 45.8333 69.6695 47.5903 71.9357 48.9653C74.2019 50.3403 76.7864 51.0278 79.6892 51.0278V57.1389C76.3281 57.1389 73.1834 56.4387 70.2552 55.0382C67.3269 53.6377 64.8697 51.7917 62.8836 49.5L61.0503 58.6667L67.467 64.7778V87.6944H61.3558ZM62.8836 34.2222C61.2031 34.2222 59.7644 33.6238 58.5677 32.4271C57.3709 31.2303 56.7725 29.7917 56.7725 28.1111C56.7725 26.4306 57.3709 24.9919 58.5677 23.7951C59.7644 22.5984 61.2031 22 62.8836 22C64.5642 22 66.0028 22.5984 67.1996 23.7951C68.3964 24.9919 68.9947 26.4306 68.9947 28.1111C68.9947 29.7917 68.3964 31.2303 67.1996 32.4271C66.0028 33.6238 64.5642 34.2222 62.8836 34.2222Z" fill="#880000"/>
<circle cx="55" cy="55" r="50" stroke="#880000" stroke-width="10"/>
</svg>
