<svg width="110" height="110" viewBox="0 0 110 110" fill="none" xmlns="http://www.w3.org/2000/svg">
<circle cx="55" cy="55" r="50" stroke="#880000" stroke-width="10"/>
<path d="M41.6665 85C40.7221 85 39.9304 84.6806 39.2915 84.0417C38.6526 83.4028 38.3332 82.6111 38.3332 81.6667V71.6667H71.6665V81.6667C71.6665 82.6111 71.3471 83.4028 70.7082 84.0417C70.0693 84.6806 69.2776 85 68.3332 85H41.6665ZM78.3332 41.6667V51.6667C78.3332 51.8333 78.2776 52.0556 78.1665 52.3333L75.6665 65C75.4998 66 75.0415 66.8056 74.2915 67.4167C73.5415 68.0278 72.6665 68.3333 71.6665 68.3333H38.3332C37.3332 68.3333 36.4582 68.0278 35.7082 67.4167C34.9582 66.8056 34.4998 66 34.3332 65L31.8332 52.3333C31.7221 52.0556 31.6665 51.8333 31.6665 51.6667V31.6667C31.6665 29.8333 32.3193 28.2639 33.6248 26.9583C34.9304 25.6528 36.4998 25 38.3332 25H64.9998C66.8332 25 68.4026 25.6528 69.7082 26.9583C71.0137 28.2639 71.6665 29.8333 71.6665 31.6667V41.6667C71.6665 40.7222 71.9859 39.9306 72.6248 39.2917C73.2637 38.6528 74.0554 38.3333 74.9998 38.3333C75.9443 38.3333 76.7359 38.6528 77.3748 39.2917C78.0137 39.9306 78.3332 40.7222 78.3332 41.6667ZM40.4998 61.6667H69.4998L71.6665 50.3333V48.3333H64.9998V31.6667H38.3332V50.3333L40.4998 61.6667ZM41.6665 48.3333H61.6665V38.3333H41.6665V48.3333Z" fill="#880000"/>
</svg>
