<svg width="110" height="110" viewBox="0 0 110 110" fill="none" xmlns="http://www.w3.org/2000/svg">
<path d="M34.711 79.6889L30.4333 75.4111L59.7666 46.0778H51.8222V52.1889H45.711V39.9667H63.5097C64.3245 39.9667 65.1138 40.1194 65.8777 40.425C66.6416 40.7305 67.3036 41.1634 67.8638 41.7236L77.0305 50.8139C78.4055 52.1889 80.086 53.2583 82.0722 54.0222C84.0583 54.7861 86.1972 55.1935 88.4888 55.2444V61.3555C85.3314 61.3555 82.4668 60.8717 79.8951 59.9042C77.3233 58.9366 75.0444 57.4852 73.0583 55.55L70.0027 52.3417L63.2805 59.0639L70.1555 65.9389L50.1416 77.4736L47.086 72.2028L60.2249 64.6403L55.0305 59.4458L34.711 79.6889ZM27.3777 58.3V52.1889H42.6555V58.3H27.3777ZM21.2666 49.1333V43.0222H36.5444V49.1333H21.2666ZM77.718 43.0222C76.0374 43.0222 74.586 42.4238 73.3638 41.2271C72.1416 40.0303 71.5305 38.5917 71.5305 36.9111C71.5305 35.2305 72.1416 33.7919 73.3638 32.5951C74.586 31.3984 76.0374 30.8 77.718 30.8C79.3985 30.8 80.8499 31.3984 82.0722 32.5951C83.2944 33.7919 83.9055 35.2305 83.9055 36.9111C83.9055 38.5917 83.2944 40.0303 82.0722 41.2271C80.8499 42.4238 79.3985 43.0222 77.718 43.0222ZM27.3777 39.9667V33.8555H42.6555V39.9667H27.3777Z" fill="#880000"/>
<circle cx="55" cy="55" r="50" stroke="#880000" stroke-width="10"/>
</svg>
