<svg width="110" height="110" viewBox="0 0 110 110" fill="none" xmlns="http://www.w3.org/2000/svg">
<circle cx="55" cy="55" r="50" stroke="#880000" stroke-width="10"/>
<path d="M24 83V76.8889C25.9352 76.8889 27.3866 76.3796 28.3542 75.3611C29.3218 74.3426 31.2315 73.8333 34.0833 73.8333C36.9352 73.8333 38.8958 74.3426 39.9653 75.3611C41.0347 76.3796 42.4861 76.8889 44.3194 76.8889C46.1528 76.8889 47.6042 76.3796 48.6736 75.3611C49.7431 74.3426 51.7037 73.8333 54.5556 73.8333C57.4074 73.8333 59.3681 74.3426 60.4375 75.3611C61.5069 76.3796 62.9583 76.8889 64.7917 76.8889C66.625 76.8889 68.0764 76.3796 69.1458 75.3611C70.2153 74.3426 72.1759 73.8333 75.0278 73.8333C77.8796 73.8333 79.7893 74.3426 80.7569 75.3611C81.7245 76.3796 83.1759 76.8889 85.1111 76.8889V83C82.1065 83 80.1331 82.4907 79.191 81.4722C78.2488 80.4537 76.8611 79.9444 75.0278 79.9444C73.1944 79.9444 71.743 80.4537 70.6736 81.4722C69.6042 82.4907 67.6435 83 64.7917 83C61.9398 83 59.9792 82.4907 58.9097 81.4722C57.8403 80.4537 56.3889 79.9444 54.5556 79.9444C52.7222 79.9444 51.2708 80.4537 50.2014 81.4722C49.1319 82.4907 47.1713 83 44.3194 83C41.4676 83 39.5069 82.4907 38.4375 81.4722C37.3681 80.4537 35.9167 79.9444 34.0833 79.9444C32.25 79.9444 30.8623 80.4537 29.9201 81.4722C28.978 82.4907 27.0046 83 24 83ZM24 69.25V63.1389C25.9352 63.1389 27.3866 62.6296 28.3542 61.6111C29.3218 60.5926 31.2315 60.0833 34.0833 60.0833C36.9352 60.0833 38.9086 60.5926 40.0035 61.6111C41.0984 62.6296 42.537 63.1389 44.3194 63.1389C46.1528 63.1389 47.6042 62.6296 48.6736 61.6111C49.7431 60.5926 51.7037 60.0833 54.5556 60.0833C57.4074 60.0833 59.3681 60.5926 60.4375 61.6111C61.5069 62.6296 62.9583 63.1389 64.7917 63.1389C66.625 63.1389 68.0764 62.6296 69.1458 61.6111C70.2153 60.5926 72.1759 60.0833 75.0278 60.0833C77.8796 60.0833 79.7893 60.5926 80.7569 61.6111C81.7245 62.6296 83.1759 63.1389 85.1111 63.1389V69.25C82.1065 69.25 80.1331 68.7407 79.191 67.7222C78.2488 66.7037 76.8611 66.1944 75.0278 66.1944C73.1944 66.1944 71.7812 66.7037 70.7882 67.7222C69.7951 68.7407 67.7963 69.25 64.7917 69.25C61.8889 69.25 59.9155 68.7407 58.8715 67.7222C57.8275 66.7037 56.3889 66.1944 54.5556 66.1944C52.6204 66.1944 51.1817 66.7037 50.2396 67.7222C49.2975 68.7407 47.3241 69.25 44.3194 69.25C41.3148 69.25 39.316 68.7407 38.3229 67.7222C37.3299 66.7037 35.9167 66.1944 34.0833 66.1944C32.25 66.1944 30.8623 66.7037 29.9201 67.7222C28.978 68.7407 27.0046 69.25 24 69.25ZM38.9722 53.6667L49.1319 43.5069L46.0764 40.4514C44.3958 38.7708 42.6134 37.5486 40.7292 36.7847C38.8449 36.0208 36.5278 35.6389 33.7778 35.6389V28C37.5972 28 40.7546 28.4201 43.25 29.2604C45.7454 30.1007 48.1898 31.7176 50.5833 34.1111L70.1389 53.6667C69.2731 54.2269 68.4329 54.6725 67.618 55.0035C66.8032 55.3345 65.8611 55.5 64.7917 55.5C62.9583 55.5 61.5069 54.9907 60.4375 53.9722C59.3681 52.9537 57.4074 52.4444 54.5556 52.4444C51.7037 52.4444 49.7431 52.9537 48.6736 53.9722C47.6042 54.9907 46.1528 55.5 44.3194 55.5C43.25 55.5 42.3079 55.3345 41.4931 55.0035C40.6782 54.6725 39.838 54.2269 38.9722 53.6667ZM68.9167 28C71.0555 28 72.8634 28.7512 74.3403 30.2535C75.8171 31.7558 76.5555 33.5509 76.5555 35.6389C76.5555 37.7778 75.8171 39.5856 74.3403 41.0625C72.8634 42.5394 71.0555 43.2778 68.9167 43.2778C66.7778 43.2778 64.9699 42.5394 63.493 41.0625C62.0162 39.5856 61.2778 37.7778 61.2778 35.6389C61.2778 33.5509 62.0162 31.7558 63.493 30.2535C64.9699 28.7512 66.7778 28 68.9167 28Z" fill="#880000"/>
</svg>
