<svg width="110" height="110" viewBox="0 0 110 110" fill="none" xmlns="http://www.w3.org/2000/svg">
<circle cx="55" cy="55" r="50" stroke="#880000" stroke-width="10"/>
<path d="M58.9583 83.75L54.875 79.6667L65.2292 69.3125L40.4375 44.5208L30.0833 54.875L26 50.7917L30.0833 46.5625L26 42.4792L32.125 36.3542L28.0417 32.125L32.125 28.0417L36.3542 32.125L42.4792 26L46.5625 30.0833L50.7917 26L54.875 30.0833L44.5208 40.4375L69.3125 65.2292L79.6667 54.875L83.75 58.9583L79.6667 63.1875L83.75 67.2708L77.625 73.3958L81.7083 77.625L77.625 81.7083L73.3958 77.625L67.2708 83.75L63.1875 79.6667L58.9583 83.75Z" fill="#880000"/>
</svg>
